<svg width="36" height="37" viewBox="0 0 36 37" fill="none" xmlns="http://www.w3.org/2000/svg">
<path fill-rule="evenodd" clip-rule="evenodd" d="M18 0.40094C27.9345 0.40094 36 8.57799 36 18.6498C36 28.7216 27.9345 36.8986 18 36.8986C8.06555 36.8986 0 28.7216 0 18.6498C0 8.57799 8.06555 0.40094 18 0.40094ZM18 7.24426C14.9447 7.24426 14.5616 7.25737 13.3616 7.31291C12.1642 7.36829 11.3464 7.56112 10.6308 7.84305C9.891 8.13453 9.2636 8.52453 8.63817 9.15861C8.01274 9.79268 7.62806 10.4288 7.34055 11.1787C7.06247 11.9042 6.87234 12.7333 6.81764 13.9473C6.76294 15.1638 6.75 15.5523 6.75 18.6498C6.75 21.7473 6.76294 22.1357 6.81764 23.3523C6.87234 24.5663 7.06247 25.3954 7.34055 26.1208C7.62806 26.8708 8.01274 27.5069 8.63817 28.141C9.2636 28.7751 9.891 29.1651 10.6308 29.4566C11.3464 29.7385 12.1642 29.9313 13.3616 29.9867C14.5616 30.0422 14.9447 30.0553 18 30.0553C21.0553 30.0553 21.4384 30.0422 22.6384 29.9867C23.8358 29.9313 24.6536 29.7385 25.3692 29.4566C26.1089 29.1651 26.7363 28.7751 27.3618 28.141C27.9873 27.5069 28.3719 26.8708 28.6594 26.1208C28.9375 25.3954 29.1277 24.5663 29.1823 23.3523C29.2371 22.1357 29.25 21.7473 29.25 18.6498C29.25 15.5523 29.2371 15.1638 29.1823 13.9473C29.1277 12.7333 28.9375 11.9042 28.6594 11.1787C28.3719 10.4288 27.9873 9.79268 27.3618 9.15861C26.7363 8.52453 26.1089 8.13453 25.3692 7.84305C24.6536 7.56112 23.8358 7.36829 22.6384 7.31291C21.4384 7.25737 21.0553 7.24426 18 7.24426ZM18 9.29932C21.0039 9.29932 21.3597 9.31094 22.546 9.36583C23.6429 9.41658 24.2385 9.60235 24.6349 9.75854C25.1601 9.9654 25.5348 10.2126 25.9284 10.6117C26.3222 11.0108 26.566 11.3908 26.77 11.9232C26.9241 12.3251 27.1074 12.9289 27.1574 14.041C27.2115 15.2437 27.223 15.6044 27.223 18.6498C27.223 21.6952 27.2115 22.0559 27.1574 23.2586C27.1074 24.3707 26.9241 24.9745 26.77 25.3764C26.566 25.9088 26.3222 26.2888 25.9284 26.6878C25.5348 27.087 25.1601 27.3342 24.6349 27.541C24.2385 27.6972 23.6429 27.8831 22.546 27.9337C21.3599 27.9886 21.0041 28.0003 18 28.0003C14.9959 28.0003 14.6402 27.9886 13.454 27.9337C12.3571 27.8831 11.7615 27.6972 11.3651 27.541C10.8399 27.3342 10.4652 27.087 10.0715 26.6878C9.67781 26.2888 9.43404 25.9088 9.22999 25.3764C9.07594 24.9745 8.89263 24.3707 8.84257 23.2586C8.78843 22.0559 8.77704 21.6952 8.77704 18.6498C8.77704 15.6044 8.78843 15.2437 8.84257 14.041C8.89263 12.9289 9.07594 12.3251 9.22999 11.9232C9.43404 11.3908 9.67781 11.0108 10.0715 10.6117C10.4652 10.2126 10.8399 9.9654 11.3651 9.75854C11.7615 9.60235 12.3571 9.41658 13.454 9.36583C14.6403 9.31094 14.9961 9.29932 18 9.29932ZM18 12.7929C14.8094 12.7929 12.223 15.4151 12.223 18.6498C12.223 21.8845 14.8094 24.5067 18 24.5067C21.1906 24.5067 23.777 21.8845 23.777 18.6498C23.777 15.4151 21.1906 12.7929 18 12.7929ZM18 22.4516C15.9289 22.4516 14.25 20.7495 14.25 18.6498C14.25 16.5501 15.9289 14.848 18 14.848C20.0711 14.848 21.75 16.5501 21.75 18.6498C21.75 20.7495 20.0711 22.4516 18 22.4516ZM25.3553 12.5615C25.3553 13.3174 24.7508 13.9301 24.0052 13.9301C23.2597 13.9301 22.6553 13.3174 22.6553 12.5615C22.6553 11.8056 23.2597 11.1929 24.0052 11.1929C24.7508 11.1929 25.3553 11.8056 25.3553 12.5615Z" fill="#435FC2"/>
<path fill-rule="evenodd" clip-rule="evenodd" d="M18 0.40094C27.9345 0.40094 36 8.57799 36 18.6498C36 28.7216 27.9345 36.8986 18 36.8986C8.06555 36.8986 0 28.7216 0 18.6498C0 8.57799 8.06555 0.40094 18 0.40094ZM18 7.24426C14.9447 7.24426 14.5616 7.25737 13.3616 7.31291C12.1642 7.36829 11.3464 7.56112 10.6308 7.84305C9.891 8.13453 9.2636 8.52453 8.63817 9.15861C8.01274 9.79268 7.62806 10.4288 7.34055 11.1787C7.06247 11.9042 6.87234 12.7333 6.81764 13.9473C6.76294 15.1638 6.75 15.5523 6.75 18.6498C6.75 21.7473 6.76294 22.1357 6.81764 23.3523C6.87234 24.5663 7.06247 25.3954 7.34055 26.1208C7.62806 26.8708 8.01274 27.5069 8.63817 28.141C9.2636 28.7751 9.891 29.1651 10.6308 29.4566C11.3464 29.7385 12.1642 29.9313 13.3616 29.9867C14.5616 30.0422 14.9447 30.0553 18 30.0553C21.0553 30.0553 21.4384 30.0422 22.6384 29.9867C23.8358 29.9313 24.6536 29.7385 25.3692 29.4566C26.1089 29.1651 26.7363 28.7751 27.3618 28.141C27.9873 27.5069 28.3719 26.8708 28.6594 26.1208C28.9375 25.3954 29.1277 24.5663 29.1823 23.3523C29.2371 22.1357 29.25 21.7473 29.25 18.6498C29.25 15.5523 29.2371 15.1638 29.1823 13.9473C29.1277 12.7333 28.9375 11.9042 28.6594 11.1787C28.3719 10.4288 27.9873 9.79268 27.3618 9.15861C26.7363 8.52453 26.1089 8.13453 25.3692 7.84305C24.6536 7.56112 23.8358 7.36829 22.6384 7.31291C21.4384 7.25737 21.0553 7.24426 18 7.24426ZM18 9.29932C21.0039 9.29932 21.3597 9.31094 22.546 9.36583C23.6429 9.41658 24.2385 9.60235 24.6349 9.75854C25.1601 9.9654 25.5348 10.2126 25.9284 10.6117C26.3222 11.0108 26.566 11.3908 26.77 11.9232C26.9241 12.3251 27.1074 12.9289 27.1574 14.041C27.2115 15.2437 27.223 15.6044 27.223 18.6498C27.223 21.6952 27.2115 22.0559 27.1574 23.2586C27.1074 24.3707 26.9241 24.9745 26.77 25.3764C26.566 25.9088 26.3222 26.2888 25.9284 26.6878C25.5348 27.087 25.1601 27.3342 24.6349 27.541C24.2385 27.6972 23.6429 27.8831 22.546 27.9337C21.3599 27.9886 21.0041 28.0003 18 28.0003C14.9959 28.0003 14.6402 27.9886 13.454 27.9337C12.3571 27.8831 11.7615 27.6972 11.3651 27.541C10.8399 27.3342 10.4652 27.087 10.0715 26.6878C9.67781 26.2888 9.43404 25.9088 9.22999 25.3764C9.07594 24.9745 8.89263 24.3707 8.84257 23.2586C8.78843 22.0559 8.77704 21.6952 8.77704 18.6498C8.77704 15.6044 8.78843 15.2437 8.84257 14.041C8.89263 12.9289 9.07594 12.3251 9.22999 11.9232C9.43404 11.3908 9.67781 11.0108 10.0715 10.6117C10.4652 10.2126 10.8399 9.9654 11.3651 9.75854C11.7615 9.60235 12.3571 9.41658 13.454 9.36583C14.6403 9.31094 14.9961 9.29932 18 9.29932ZM18 12.7929C14.8094 12.7929 12.223 15.4151 12.223 18.6498C12.223 21.8845 14.8094 24.5067 18 24.5067C21.1906 24.5067 23.777 21.8845 23.777 18.6498C23.777 15.4151 21.1906 12.7929 18 12.7929ZM18 22.4516C15.9289 22.4516 14.25 20.7495 14.25 18.6498C14.25 16.5501 15.9289 14.848 18 14.848C20.0711 14.848 21.75 16.5501 21.75 18.6498C21.75 20.7495 20.0711 22.4516 18 22.4516ZM25.3553 12.5615C25.3553 13.3174 24.7508 13.9301 24.0052 13.9301C23.2597 13.9301 22.6553 13.3174 22.6553 12.5615C22.6553 11.8056 23.2597 11.1929 24.0052 11.1929C24.7508 11.1929 25.3553 11.8056 25.3553 12.5615Z" fill="url(#paint0_linear_2_220)"/>
<defs>
<linearGradient id="paint0_linear_2_220" x1="0" y1="0.40094" x2="26.1507" y2="33.0734" gradientUnits="userSpaceOnUse">
<stop stop-color="#6B7FC6"/>
<stop offset="1" stop-color="#1A2370"/>
</linearGradient>
</defs>
</svg>
