<svg width="36" height="37" viewBox="0 0 36 37" fill="none" xmlns="http://www.w3.org/2000/svg">
<path d="M18 36.8986C27.9411 36.8986 36 28.7284 36 18.6498C36 8.57123 27.9411 0.40094 18 0.40094C8.05887 0.40094 0 8.57123 0 18.6498C0 28.7284 8.05887 36.8986 18 36.8986Z" fill="url(#paint0_linear_2_224)"/>
<path d="M18 36.8986C27.9411 36.8986 36 28.7284 36 18.6498C36 8.57123 27.9411 0.40094 18 0.40094C8.05887 0.40094 0 8.57123 0 18.6498C0 28.7284 8.05887 36.8986 18 36.8986Z" fill="url(#paint1_linear_2_224)"/>
<path d="M18 36.8986C27.9411 36.8986 36 28.7284 36 18.6498C36 8.57123 27.9411 0.40094 18 0.40094C8.05887 0.40094 0 8.57123 0 18.6498C0 28.7284 8.05887 36.8986 18 36.8986Z" fill="url(#paint2_linear_2_224)"/>
<path d="M26.761 10.9011L23.5477 27.3322C23.5477 27.3322 23.0977 28.4728 21.8602 27.9239L14.4422 22.157L11.7422 20.8382L7.19995 19.2913C7.19995 19.2913 6.50385 19.0418 6.43354 18.4929C6.36323 17.944 7.22104 17.6518 7.22104 17.6518L25.2774 10.4734C25.2774 10.4663 26.761 9.80335 26.761 10.9011Z" fill="white"/>
<path d="M13.8656 27.1469C13.8656 27.1469 13.6477 27.1255 13.3805 26.2629C13.1133 25.4004 11.7422 20.8382 11.7422 20.8382L22.6477 13.8167C22.6477 13.8167 23.2805 13.4317 23.2524 13.8167C23.2524 13.8167 23.3649 13.8879 23.0274 14.2016C22.6899 14.5224 14.4633 22.0215 14.4633 22.0215" fill="#D2E4F0"/>
<path d="M17.2828 24.3668L14.3508 27.0827C14.3508 27.0827 14.1188 27.2609 13.8727 27.1469L14.4352 22.1071" fill="#B5CFE4"/>
<defs>
<linearGradient id="paint0_linear_2_224" x1="18" y1="0.40094" x2="25.9174" y2="33.3739" gradientUnits="userSpaceOnUse">
<stop stop-color="#435FC2"/>
<stop offset="1" stop-color="#29429A"/>
</linearGradient>
<linearGradient id="paint1_linear_2_224" x1="8" y1="4.45624" x2="26.0678" y2="33.2005" gradientUnits="userSpaceOnUse">
<stop stop-color="#6B7FC6"/>
<stop offset="1" stop-color="#29429A"/>
</linearGradient>
<linearGradient id="paint2_linear_2_224" x1="0" y1="0.40094" x2="26.1507" y2="33.0734" gradientUnits="userSpaceOnUse">
<stop stop-color="#6B7FC6"/>
<stop offset="1" stop-color="#1A2370"/>
</linearGradient>
</defs>
</svg>
