<svg width="17" height="18" viewBox="0 0 17 18" fill="none" xmlns="http://www.w3.org/2000/svg">
<path d="M3.42361 8.0582C4.78361 10.7679 6.97 12.9845 9.6475 14.3633L11.7253 12.2521C11.985 11.9887 12.3581 11.9121 12.6839 12.0175C13.7417 12.3717 14.8797 12.5632 16.0556 12.5632C16.5797 12.5632 17 12.9893 17 13.5207V16.872C17 17.4034 16.5797 17.8295 16.0556 17.8295C7.18722 17.8295 0 10.5429 0 1.55198C0 1.02057 0.425 0.594482 0.944444 0.594482H4.25C4.77417 0.594482 5.19444 1.02057 5.19444 1.55198C5.19444 2.74407 5.38333 3.89786 5.73278 4.97026C5.83667 5.3006 5.76111 5.67881 5.50139 5.94213L3.42361 8.0582Z" fill="url(#paint0_linear_1_83)"/>
<defs>
<linearGradient id="paint0_linear_1_83" x1="3.1875" y1="-6.94584" x2="23.1198" y2="-5.4452" gradientUnits="userSpaceOnUse">
<stop stop-color="#35D144"/>
<stop offset="1" stop-color="#1A8224"/>
</linearGradient>
</defs>
</svg>
