<svg width="36" height="37" viewBox="0 0 36 37" fill="none" xmlns="http://www.w3.org/2000/svg">
<path d="M18 0.40094C8.05866 0.40094 0 8.57101 0 18.6498C0 28.7286 8.05866 36.8986 18 36.8986C27.9413 36.8986 36 28.7286 36 18.6498C36 8.57101 27.9413 0.40094 18 0.40094ZM27.6738 25.5749C26.9056 26.062 23.7841 26.2071 23.0284 25.6504C22.6139 25.3452 22.2348 24.9634 21.8749 24.5996C21.623 24.3454 21.3372 24.2221 21.1208 23.9461C20.9441 23.7204 20.8228 23.4539 20.6368 23.231C20.3229 22.857 19.8398 22.5387 19.4576 22.9958C18.8821 23.6832 19.5481 25.0333 18.7807 25.5469C18.5233 25.7192 18.2636 25.7691 17.9419 25.7445L17.2295 25.7774C16.811 25.7857 16.1481 25.7896 15.672 25.7026C15.1409 25.6054 14.7022 25.3113 14.2218 25.0954C13.3101 24.6854 12.4417 24.1268 11.7807 23.3531C9.98189 21.246 7.56577 18.3481 6.62717 15.699C6.43414 15.1546 5.92409 14.0765 6.40762 13.6096C7.06508 13.1253 10.2919 12.9889 10.7953 13.7377C10.9997 14.0421 11.1287 14.4873 11.2734 14.8324C11.4536 15.2625 11.551 15.6677 11.8326 16.0485C12.0818 16.3861 12.2654 16.7257 12.4581 17.0957C12.6745 17.5112 12.8788 17.9097 13.142 18.292C13.3206 18.5521 13.7929 19.0696 14.0912 19.108C14.8196 19.2025 14.7743 17.408 14.7201 16.97C14.6683 16.5478 14.655 16.0999 14.6687 15.6717C14.6804 15.3064 14.7127 14.7917 14.4994 14.4936C14.1516 14.0073 13.3768 14.371 13.3163 13.7175C13.4442 13.5321 13.4173 13.3677 14.2717 13.0822C14.9448 12.8581 15.3795 12.8652 15.8233 12.9012C16.728 12.9747 17.6873 12.7264 18.5607 13.0237C19.3952 13.3088 19.2662 14.511 19.2381 15.2313C19.2003 16.2145 19.2408 17.1744 19.2381 18.1726C19.2369 18.6269 19.219 19.0692 19.7657 19.0321C20.2781 18.9977 20.3303 18.5604 20.5748 18.1999C20.9149 17.697 21.2272 17.187 21.5735 16.6861C22.0403 16.0089 22.1814 15.2479 22.6209 14.5541C22.778 14.3062 22.9133 13.778 23.1555 13.5819C23.3388 13.4329 23.687 13.5108 23.9089 13.5108H24.4365C24.8401 13.5108 25.2519 13.5076 25.6668 13.5222C26.2642 13.5432 26.9333 13.404 27.5257 13.489C30.0818 13.8547 24.3129 19.3946 24.6131 20.3837C24.8206 21.0669 26.1367 21.8303 26.6116 22.3897C27.2422 23.1349 29.1833 24.6162 27.6738 25.5749Z" fill="#435FC2"/>
<path d="M18 0.40094C8.05866 0.40094 0 8.57101 0 18.6498C0 28.7286 8.05866 36.8986 18 36.8986C27.9413 36.8986 36 28.7286 36 18.6498C36 8.57101 27.9413 0.40094 18 0.40094ZM27.6738 25.5749C26.9056 26.062 23.7841 26.2071 23.0284 25.6504C22.6139 25.3452 22.2348 24.9634 21.8749 24.5996C21.623 24.3454 21.3372 24.2221 21.1208 23.9461C20.9441 23.7204 20.8228 23.4539 20.6368 23.231C20.3229 22.857 19.8398 22.5387 19.4576 22.9958C18.8821 23.6832 19.5481 25.0333 18.7807 25.5469C18.5233 25.7192 18.2636 25.7691 17.9419 25.7445L17.2295 25.7774C16.811 25.7857 16.1481 25.7896 15.672 25.7026C15.1409 25.6054 14.7022 25.3113 14.2218 25.0954C13.3101 24.6854 12.4417 24.1268 11.7807 23.3531C9.98189 21.246 7.56577 18.3481 6.62717 15.699C6.43414 15.1546 5.92409 14.0765 6.40762 13.6096C7.06508 13.1253 10.2919 12.9889 10.7953 13.7377C10.9997 14.0421 11.1287 14.4873 11.2734 14.8324C11.4536 15.2625 11.551 15.6677 11.8326 16.0485C12.0818 16.3861 12.2654 16.7257 12.4581 17.0957C12.6745 17.5112 12.8788 17.9097 13.142 18.292C13.3206 18.5521 13.7929 19.0696 14.0912 19.108C14.8196 19.2025 14.7743 17.408 14.7201 16.97C14.6683 16.5478 14.655 16.0999 14.6687 15.6717C14.6804 15.3064 14.7127 14.7917 14.4994 14.4936C14.1516 14.0073 13.3768 14.371 13.3163 13.7175C13.4442 13.5321 13.4173 13.3677 14.2717 13.0822C14.9448 12.8581 15.3795 12.8652 15.8233 12.9012C16.728 12.9747 17.6873 12.7264 18.5607 13.0237C19.3952 13.3088 19.2662 14.511 19.2381 15.2313C19.2003 16.2145 19.2408 17.1744 19.2381 18.1726C19.2369 18.6269 19.219 19.0692 19.7657 19.0321C20.2781 18.9977 20.3303 18.5604 20.5748 18.1999C20.9149 17.697 21.2272 17.187 21.5735 16.6861C22.0403 16.0089 22.1814 15.2479 22.6209 14.5541C22.778 14.3062 22.9133 13.778 23.1555 13.5819C23.3388 13.4329 23.687 13.5108 23.9089 13.5108H24.4365C24.8401 13.5108 25.2519 13.5076 25.6668 13.5222C26.2642 13.5432 26.9333 13.404 27.5257 13.489C30.0818 13.8547 24.3129 19.3946 24.6131 20.3837C24.8206 21.0669 26.1367 21.8303 26.6116 22.3897C27.2422 23.1349 29.1833 24.6162 27.6738 25.5749Z" fill="url(#paint0_linear_2_222)"/>
<path d="M18 0.40094C8.05866 0.40094 0 8.57101 0 18.6498C0 28.7286 8.05866 36.8986 18 36.8986C27.9413 36.8986 36 28.7286 36 18.6498C36 8.57101 27.9413 0.40094 18 0.40094ZM27.6738 25.5749C26.9056 26.062 23.7841 26.2071 23.0284 25.6504C22.6139 25.3452 22.2348 24.9634 21.8749 24.5996C21.623 24.3454 21.3372 24.2221 21.1208 23.9461C20.9441 23.7204 20.8228 23.4539 20.6368 23.231C20.3229 22.857 19.8398 22.5387 19.4576 22.9958C18.8821 23.6832 19.5481 25.0333 18.7807 25.5469C18.5233 25.7192 18.2636 25.7691 17.9419 25.7445L17.2295 25.7774C16.811 25.7857 16.1481 25.7896 15.672 25.7026C15.1409 25.6054 14.7022 25.3113 14.2218 25.0954C13.3101 24.6854 12.4417 24.1268 11.7807 23.3531C9.98189 21.246 7.56577 18.3481 6.62717 15.699C6.43414 15.1546 5.92409 14.0765 6.40762 13.6096C7.06508 13.1253 10.2919 12.9889 10.7953 13.7377C10.9997 14.0421 11.1287 14.4873 11.2734 14.8324C11.4536 15.2625 11.551 15.6677 11.8326 16.0485C12.0818 16.3861 12.2654 16.7257 12.4581 17.0957C12.6745 17.5112 12.8788 17.9097 13.142 18.292C13.3206 18.5521 13.7929 19.0696 14.0912 19.108C14.8196 19.2025 14.7743 17.408 14.7201 16.97C14.6683 16.5478 14.655 16.0999 14.6687 15.6717C14.6804 15.3064 14.7127 14.7917 14.4994 14.4936C14.1516 14.0073 13.3768 14.371 13.3163 13.7175C13.4442 13.5321 13.4173 13.3677 14.2717 13.0822C14.9448 12.8581 15.3795 12.8652 15.8233 12.9012C16.728 12.9747 17.6873 12.7264 18.5607 13.0237C19.3952 13.3088 19.2662 14.511 19.2381 15.2313C19.2003 16.2145 19.2408 17.1744 19.2381 18.1726C19.2369 18.6269 19.219 19.0692 19.7657 19.0321C20.2781 18.9977 20.3303 18.5604 20.5748 18.1999C20.9149 17.697 21.2272 17.187 21.5735 16.6861C22.0403 16.0089 22.1814 15.2479 22.6209 14.5541C22.778 14.3062 22.9133 13.778 23.1555 13.5819C23.3388 13.4329 23.687 13.5108 23.9089 13.5108H24.4365C24.8401 13.5108 25.2519 13.5076 25.6668 13.5222C26.2642 13.5432 26.9333 13.404 27.5257 13.489C30.0818 13.8547 24.3129 19.3946 24.6131 20.3837C24.8206 21.0669 26.1367 21.8303 26.6116 22.3897C27.2422 23.1349 29.1833 24.6162 27.6738 25.5749Z" fill="url(#paint1_linear_2_222)"/>
<defs>
<linearGradient id="paint0_linear_2_222" x1="8" y1="4.45624" x2="26.0678" y2="33.2005" gradientUnits="userSpaceOnUse">
<stop stop-color="#6B7FC6"/>
<stop offset="1" stop-color="#29429A"/>
</linearGradient>
<linearGradient id="paint1_linear_2_222" x1="0" y1="0.40094" x2="26.1507" y2="33.0734" gradientUnits="userSpaceOnUse">
<stop stop-color="#6B7FC6"/>
<stop offset="1" stop-color="#1A2370"/>
</linearGradient>
</defs>
</svg>
